<svg xmlns="http://www.w3.org/2000/svg" viewBox="0 0 258 258">
  <path fill="#E84142" d="M129 258c71.245 0 129-57.755 129-129S200.245 0 129 0 0 57.755 0 129s57.755 129 129 129"/>
  <path fill="#fff" fill-rule="evenodd" d="M92.864 183.422H68.45c-5.128 0-7.66 0-9.208-.992a6.2 6.2 0 0 1-2.806-4.854c-.096-1.822 1.17-4.055 3.71-8.506l60.242-106.368c2.564-4.515 3.87-6.773 5.499-7.611a6.21 6.21 0 0 1 5.627 0c1.637.838 2.935 3.096 5.499 7.61l12.384 21.657.065.113c2.765 4.837 4.168 7.304 4.781 9.884a18.2 18.2 0 0 1 0 8.595c-.613 2.604-2.008 5.079-4.814 9.997l-31.653 56.035-.081.137c-2.789 4.886-4.192 7.361-6.159 9.231a18.4 18.4 0 0 1-7.499 4.354c-2.572.718-5.434.718-11.174.718zm61.621 0h34.959c5.16 0 7.757 0 9.305-1.016a6.18 6.18 0 0 0 2.805-4.894c.089-1.766-1.145-3.902-3.571-8.103l-.258-.435-17.512-30.009-.202-.339c-2.459-4.168-3.708-6.272-5.297-7.087a6.15 6.15 0 0 0-5.587 0c-1.613.839-2.903 3.04-5.466 7.458l-17.456 30.009-.056.105c-2.556 4.418-3.838 6.619-3.741 8.433a6.26 6.26 0 0 0 2.806 4.886c1.515.992 4.111.992 9.271.992" clip-rule="evenodd"/>
</svg>
