<svg xmlns="http://www.w3.org/2000/svg" viewBox="0 0 258 258">
  <path fill="#F0B90B" fill-rule="evenodd" d="M129 0c71.25 0 129 57.75 129 129s-57.75 129-129 129S0 200.25 0 129 57.75 0 129 0" clip-rule="evenodd"/>
  <path fill="#fff" d="m70.898 129 .093 34.111 28.984 17.055v19.97l-45.946-26.947v-54.164L70.9 129zm0-34.11v19.877l-16.88-9.985V84.905l16.88-9.986 16.963 9.986zm41.181-9.986 16.88-9.985 16.962 9.986-16.962 9.985z"/>
  <path fill="#fff" d="M83.096 156.041V136.07l16.879 9.985v19.878zm28.983 31.278 16.88 9.985 16.962-9.985v19.877l-16.962 9.985-16.88-9.985zm58.05-102.414 16.88-9.986 16.962 9.986v19.877l-16.962 9.985V94.89l-16.88-9.986zm16.88 78.206.093-34.111 16.879-9.985v54.164l-45.946 26.947v-19.97z"/>
  <path fill="#fff" d="m174.905 156.04-16.88 9.893v-19.878l16.88-9.985z"/>
  <path fill="#fff" d="m174.905 101.959.093 19.971-29.067 17.055v34.193l-16.879 9.892-16.88-9.892v-34.193L83.106 121.93v-19.971l16.952-9.985 28.89 17.138 29.067-17.138 16.962 9.985zm-91.81-34.1 45.864-27.04 45.946 27.04-16.88 9.985-29.066-17.138-28.984 17.138z"/>
</svg>
