<svg xmlns="http://www.w3.org/2000/svg" viewBox="0 0 40 40">
  <rect width="40" height="40" fill="#FF0420" rx="20"/>
  <path fill="#fff" d="M6 20c0-7.732 6.268-14 14-14s14 6.268 14 14-6.268 14-14 14S6 27.732 6 20"/>
  <path fill="#FF0420" d="M20 6C12.268 6 6 12.268 6 20s6.268 14 14 14 14-6.268 14-14S27.732 6 20 6m0 21.128v5.846c-5.551 0-10.051-4.5-10.051-10.05 0-5.552 4.5-10.052 10.051-10.052V7.026c5.551 0 10.051 4.5 10.051 10.05 0 5.552-4.5 10.052-10.051 10.052m4.82-7.173v.09q-3.186 1.588-4.775 4.775h-.09q-1.588-3.186-4.775-4.775v-.09q3.186-1.588 4.775-4.775h.09q1.588 3.186 4.775 4.775"/>
</svg>
