<svg xmlns="http://www.w3.org/2000/svg" viewBox="0 0 593 593">
  <rect width="593" height="593" fill="#000" rx="296.5"/>
  <defs>
    <linearGradient id="sol_a" x1="144.958" x2="437.151" y1="464.16" y2="126.048" gradientUnits="userSpaceOnUse">
      <stop offset="0.08" stop-color="#9945FF"/>
      <stop offset="0.3" stop-color="#8752F3"/>
      <stop offset="0.5" stop-color="#5497D5"/>
      <stop offset="0.6" stop-color="#43B4CA"/>
      <stop offset="0.72" stop-color="#28E0B9"/>
      <stop offset="0.97" stop-color="#19FB9B"/>
    </linearGradient>
  </defs>
  <path fill="url(#sol_a)" d="m478.862 388.938-60.544 63.255a14.1 14.1 0 0 1-4.678 3.218 14.4 14.4 0 0 1-5.607 1.134H121.029c-1.37 0-2.709-.39-3.855-1.122a6.9 6.9 0 0 1-2.591-2.997 6.7 6.7 0 0 1-.481-3.89 6.77 6.77 0 0 1 1.788-3.51l60.589-63.255a14.05 14.05 0 0 1 4.663-3.212 14.4 14.4 0 0 1 5.591-1.14h286.988c1.37 0 2.709.39 3.855 1.121a6.93 6.93 0 0 1 2.593 2.997 6.7 6.7 0 0 1 .479 3.891 6.8 6.8 0 0 1-1.786 3.51m-60.544-127.377a14.1 14.1 0 0 0-4.678-3.218 14.4 14.4 0 0 0-5.607-1.133H121.029c-1.37 0-2.709.389-3.855 1.121a6.9 6.9 0 0 0-2.591 2.997 6.7 6.7 0 0 0-.481 3.89 6.8 6.8 0 0 0 1.788 3.511l60.589 63.254a14 14 0 0 0 4.663 3.212 14.4 14.4 0 0 0 5.591 1.14h286.988c1.37 0 2.709-.39 3.855-1.122a6.9 6.9 0 0 0 2.593-2.996 6.7 6.7 0 0 0 .479-3.891 6.8 6.8 0 0 0-1.786-3.51zm-297.289-45.436h287.004a14.4 14.4 0 0 0 5.607-1.133 14.1 14.1 0 0 0 4.678-3.219l60.544-63.254a6.8 6.8 0 0 0 1.786-3.51 6.7 6.7 0 0 0-.479-3.891 6.93 6.93 0 0 0-2.593-2.997 7.17 7.17 0 0 0-3.855-1.121H186.733a14.4 14.4 0 0 0-5.591 1.14 14.05 14.05 0 0 0-4.663 3.212l-60.574 63.255a6.8 6.8 0 0 0-1.787 3.506 6.7 6.7 0 0 0 .477 3.887 6.9 6.9 0 0 0 2.585 2.998 7.17 7.17 0 0 0 3.849 1.127"/>
</svg>
